<svg width="50" height="50" viewBox="0 0 50 50" fill="none" xmlns="http://www.w3.org/2000/svg">
<path fill-rule="evenodd" clip-rule="evenodd" d="M13.5 6H36.5C40.0899 6 43 8.91015 43 12.5V38.5C43 42.0899 40.0899 45 36.5 45H13.5C9.91015 45 7 42.0899 7 38.5V12.5C7 8.91015 9.91015 6 13.5 6ZM13.5 8.5C11.2909 8.5 9.5 10.2909 9.5 12.5V38.5C9.5 40.7091 11.2909 42.5 13.5 42.5H36.5C38.7091 42.5 40.5 40.7091 40.5 38.5V12.5C40.5 10.2909 38.7091 8.5 36.5 8.5H13.5ZM13.25 17.5C13.25 16.8096 13.8096 16.25 14.5 16.25H19C19.6904 16.25 20.25 16.8096 20.25 17.5C20.25 18.1904 19.6904 18.75 19 18.75H14.5C13.8096 18.75 13.25 18.1904 13.25 17.5ZM14.5 25.25C13.8096 25.25 13.25 25.8096 13.25 26.5C13.25 27.1904 13.8096 27.75 14.5 27.75H21.5C22.1904 27.75 22.75 27.1904 22.75 26.5C22.75 25.8096 22.1904 25.25 21.5 25.25H14.5ZM14.5 34.35C13.8096 34.35 13.25 34.9096 13.25 35.6C13.25 36.2903 13.8096 36.85 14.5 36.85H30.5C31.1904 36.85 31.75 36.2903 31.75 35.6C31.75 34.9096 31.1904 34.35 30.5 34.35H14.5ZM32.271 25.6922C31.6329 25.8922 30.9541 26 30.25 26C26.5221 26 23.5 22.9779 23.5 19.25C23.5 15.5221 26.5221 12.5 30.25 12.5C33.9779 12.5 37 15.5221 37 19.25C37 21.3763 36.0169 23.2729 34.4804 24.5102L36.5599 27.8375C36.9258 28.4229 36.7478 29.1941 36.1624 29.56C35.577 29.9259 34.8058 29.7479 34.4399 29.1625L32.271 25.6922ZM34.5 19.25C34.5 21.5972 32.5972 23.5 30.25 23.5C27.9028 23.5 26 21.5972 26 19.25C26 16.9028 27.9028 15 30.25 15C32.5972 15 34.5 16.9028 34.5 19.25Z" fill="#FF6900"/>
</svg>
